<svg xmlns="http://www.w3.org/2000/svg" version="1.1" xmlns:xlink="http://www.w3.org/1999/xlink" viewBox="0 0 24 24" height="21px" fill="#fff" theme="[object Object]" class="sc-fcdeBU kNLLPa"><path d="M16.1 11.33a2.55 2.55 0 0 0 1.42-2.79c-.18-2-1.88-2.63-4-2.81V3h-1.69v2.65H10.5V3H8.84v2.73H5.49V7.5H6.7a.85.85 0 0 1 1 .73v7.47a.59.59 0 0 1-.63.55H5.86l-.33 2h3.31V21h1.66v-2.73h1.33V21h1.66v-2.75c2.79-.16 4.75-.87 5-3.49a2.82 2.82 0 0 0-2.39-3.43zm-5.56-3.71c.94 0 3.89-.29 3.89 1.66s-2.95 1.66-3.89 1.66zm0 8.64v-3.65c1.13 0 4.66-.32 4.66 1.83s-3.53 1.82-4.66 1.82z"></path></svg>