<svg xmlns="http://www.w3.org/2000/svg" version="1.1" xmlns:xlink="http://www.w3.org/1999/xlink" width="123" height="22" viewBox="0 0 131 26"><g fill="none" fill-rule="evenodd"><path d="M8.795 17.026a7.736 7.736 0 0 0 1.251 1.93c-1.11.599-2.272.866-3.54.866-3.77 0-6.506-2.49-6.506-6.464 0-4.002 2.876-6.491 6.506-6.491 1.292 0 2.31.28 3.337.83A7.85 7.85 0 0 0 8.67 9.692a5.079 5.079 0 0 0-1.914-.362c-2.233 0-3.965 1.427-3.965 4.03 0 2.462 1.676 4.029 4.078 4.029.688 0 1.323-.125 1.926-.362zm7.582-10.16c3.713 0 6.393 2.631 6.393 6.492 0 3.834-2.68 6.464-6.393 6.464-3.685 0-6.366-2.63-6.366-6.464 0-3.86 2.68-6.491 6.366-6.491zm0 2.379c-2.066 0-3.574 1.595-3.574 4.113 0 2.491 1.508 4.085 3.574 4.085 2.122 0 3.602-1.594 3.602-4.085 0-2.518-1.48-4.113-3.602-4.113zm8.153 10.297V7.146h2.763v12.396H24.53zm-.364-16.201c0-.951.81-1.707 1.731-1.707.922 0 1.732.756 1.732 1.707 0 .98-.81 1.763-1.732 1.763-.92 0-1.731-.784-1.731-1.763zm5.538 4.59c1.731-.672 3.854-1.064 5.668-1.064 3.155 0 5.166 1.203 5.166 4.7v7.975h-2.736V11.82c0-1.791-1.117-2.435-2.653-2.435-.978 0-1.954.14-2.68.364v9.793h-2.765V7.93zM42.852.514h2.764v6.968c.586-.308 1.73-.616 2.82-.616 3.573 0 6.254 2.294 6.254 6.268 0 4-2.653 6.687-7.23 6.687a13.72 13.72 0 0 1-4.608-.812V.515zm2.764 16.677c.53.167 1.229.251 1.926.251 2.54 0 4.356-1.398 4.356-4.253 0-2.406-1.703-3.833-3.797-3.833-1.089 0-1.927.28-2.485.588v7.247zm17.058-5.96c0-1.344-1.006-1.959-2.373-1.959-1.424 0-2.541.42-3.574 1.007V7.873c1.088-.614 2.484-1.006 4.02-1.006 2.708 0 4.635 1.119 4.635 4.224v8.199c-1.173.308-2.848.504-4.243.504-3.211 0-5.557-.98-5.557-3.778 0-2.518 2.15-3.748 5.723-3.748h1.369V11.23zm0 2.882H61.5c-1.927 0-3.183.559-3.183 1.818 0 1.288 1.173 1.791 2.848 1.791.42 0 1.006-.056 1.508-.14v-3.469zm4.718 2.07c1.145.868 2.512 1.4 3.768 1.4 1.23 0 2.04-.42 2.04-1.4 0-1.007-.727-1.371-2.318-1.79-2.569-.588-3.658-1.623-3.658-3.778 0-2.519 1.899-3.75 4.412-3.75 1.395 0 2.512.309 3.545.952v2.546c-1.088-.783-2.15-1.259-3.461-1.259-1.201 0-1.843.588-1.843 1.4 0 .81.53 1.23 1.954 1.622 2.82.616 4.049 1.68 4.049 3.918 0 2.602-1.983 3.777-4.663 3.777-1.452 0-2.904-.391-3.825-1.007v-2.63zm12.27-2.21v.056c.168 2.21 2.066 3.413 3.993 3.413 1.703 0 2.932-.392 4.16-1.203v2.435c-1.117.783-2.764 1.147-4.355 1.147-3.853 0-6.478-2.463-6.478-6.38 0-3.945 2.568-6.575 5.975-6.575 3.601 0 5.304 2.322 5.304 5.707v1.4h-8.598zm6.003-1.79c-.056-1.932-1.005-2.995-2.792-2.995-1.591 0-2.764 1.12-3.127 2.994h5.919z" fill="#FFF"></path><rect fill="#4B535E" x="98.122" width="1" height="26" rx="0.5"></rect><path d="M110.17 14.935v4.63h-1.29V7.157c.562-.084 1.457-.188 2.185-.188 3.412 0 4.848 1.585 4.848 3.92 0 2.648-1.852 4.087-4.952 4.087-.229 0-.52-.02-.79-.042zm0-6.818v5.734c.23.02.458.02.666.02 2.56 0 3.766-.98 3.766-2.98 0-1.606-.936-2.816-3.6-2.816-.25 0-.54.021-.832.042zm8.07 3.857v7.59h-1.249v-8.257a6.325 6.325 0 0 1 3.37-.98c.5 0 1 .063 1.52.188v1.23c-.541-.188-1.186-.23-1.603-.23-.894 0-1.56.188-2.039.46zm3.616 3.045c0-2.815 1.852-4.754 4.557-4.754s4.556 1.939 4.556 4.754c0 2.815-1.851 4.754-4.556 4.754s-4.557-1.94-4.557-4.754zm7.844 0c0-2.21-1.373-3.67-3.287-3.67s-3.288 1.46-3.288 3.67 1.374 3.67 3.288 3.67c1.914 0 3.287-1.46 3.287-3.67z" fill="#BCBFC3"></path></g></svg>