<svg xmlns="http://www.w3.org/2000/svg" version="1.1" xmlns:xlink="http://www.w3.org/1999/xlink" width="15" height="15" viewBox="0 0 15 15" fill="none" theme="[object Object]" class="sc-kZmsYB bFpcRh"><path fill-rule="evenodd" clip-rule="evenodd" d="M5.832 0C2.623 0 0 2.618 0 5.827c0 3.21 2.623 5.834 5.832 5.834a5.778 5.778 0 0 0 3.489-1.178.83.83 0 0 0 .08.096l4.168 4.167a.833.833 0 1 0 1.173-1.181l-4.16-4.16a.833.833 0 0 0-.098-.086 5.796 5.796 0 0 0 1.173-3.492C11.657 2.617 9.04 0 5.832 0zm0 1.665a4.147 4.147 0 0 1 4.16 4.162 4.153 4.153 0 0 1-4.16 4.168A4.157 4.157 0 0 1 1.688 5.4a4.15 4.15 0 0 1 4.145-3.734h-.001z" fill="#e9e9e9"></path></svg>